# AST/ASF file generated using VICON BodyLanguage
# -----------------------------------------------
:version 1.10
:name VICON
:units
  mass 1.0
  length 0.45
  angle deg
:documentation
   .ast/.asf automatically generated from VICON data using
   VICON BodyBuilder and BodyLanguage model FoxedUp or BRILLIANT.MOD
:root
   order TX TY TZ RX RY RZ
   axis XYZ
   position 0 0 0  
   orientation 0 0 0 
:bonedata
  begin
     id 1 
     name lhipjoint
     direction 0.543289 -0.788407 0.288535 
     length 2.57127 
     axis 0 0 0  XYZ
  end
  begin
     id 2 
     name lfemur
     direction 0.34202 -0.939693 0  
     length 8.47298  
     axis 0 0 20  XYZ
    dof rx ry rz
    limits (-160.0 20.0)
           (-70.0 70.0)
           (-60.0 70.0)
  end
  begin
     id 3 
     name ltibia
     direction 0.34202 -0.939693 0   
     length 8.13367   
     axis 0 0 20   XYZ
    dof rx
    limits (-10.0 170.0)
  end
  begin
     id 4 
     name lfoot
     direction 0.114037 -0.313314 0.942778   
     length 2.67113   
     axis -90 7.62852e-016 20   XYZ
    dof rx rz
    limits (-45.0 90.0)
           (-70.0 20.0)
  end
  begin
     id 5 
     name ltoes
     direction 1.536e-011 -4.21847e-011 1   
     length 1.32217   
     axis -90 7.62852e-016 20   XYZ
    dof rx
    limits (-90.0 20.0)
  end
  begin
     id 6 
     name rhipjoint
     direction -0.571293 -0.770752 0.282074   
     length 2.63017  
     axis 0 0 0  XYZ 
  end
  begin
     id 7 
     name rfemur
     direction -0.34202 -0.939693 0   
     length 8.60885   
     axis 0 0 -20   XYZ
    dof rx ry rz
    limits (-160.0 20.0)
           (-70.0 70.0)
           (-70.0 60.0)
  end
  begin
     id 8 
     name rtibia
     direction -0.34202 -0.939693 0   
     length 8.07673   
     axis 0 0 -20   XYZ
    dof rx
    limits (-10.0 170.0)
 end
 begin
     id 9 
     name rfoot
     direction -0.121336 -0.333368 0.934956   
     length 2.81602  
     axis -90 -7.62852e-016 -20   XYZ
    dof rx rz
    limits (-45.0 90.0)
           (-20.0 70.0)
  end
  begin
     id 10 
     name rtoes
     direction -1.53491e-011 -4.21808e-011 1   
     length 1.38905   
     axis -90 -7.62852e-016 -20   XYZ
    dof rx
    limits (-90.0 20.0)
  end
  begin
     id 11 
     name lowerback
     direction 0.0136776 0.999869 -0.00861835   
     length 2.14087   
     axis 0 0 0   XYZ
    dof rx ry rz
    limits (-20.0 45.0)
           (-30.0 30.0)
           (-30.0 30.0)
  end
  begin
     id 12 
     name upperback
     direction -0.00789158 0.999804 0.0181308   
     length 2.14151   
     axis 0 0 0   XYZ
    dof rx ry rz
    limits (-20.0 45.0)
           (-30.0 30.0)
           (-30.0 30.0)
  end
  begin
     id 13 
     name thorax
     direction -0.0135231 0.999666 0.0220247   
     length 2.13644   
     axis 0 0 0   XYZ
    dof rx ry rz
    limits (-20.0 45.0)
           (-30.0 30.0)
           (-30.0 30.0)
  end
  begin
     id 14 
     name lowerneck
     direction -0.0392259 0.997317 0.0618018   
     length 1.65045   
     axis 0 0 0   XYZ
    dof rx ry rz
    limits (-20.0 45.0)
           (-30.0 30.0)
           (-30.0 30.0)
  end
  begin
     id 15 
     name upperneck
     direction 0.0765547 0.994276 -0.0745319   
     length 1.66045   
     axis 0 0 0   XYZ
    dof rx ry rz
    limits (-20.0 45.0)
           (-30.0 30.0)
           (-30.0 30.0)
  end
  begin
     id 16
     name head
     direction 0.0241564 0.999031 -0.036785  
     length 1.66594  
     axis 0 0 0   XYZ
    dof rx ry rz
    limits (-20.0 45.0)
           (-30.0 30.0)
           (-30.0 30.0)
  end
  begin
     id 17 
     name lclavicle
     direction 0.967398 0.249018 0.0461573  
     length 3.75176  
     axis 0 0 0   XYZ
    dof ry rz
    limits (-20.0 10.0)
           (0.0 20.0)
  end
  begin
     id 18 
     name lhumerus
     direction 1 -4.48963e-011 -3.05005e-027   
     length 5.93342   
     axis 180 -30 -90   XYZ
    dof rx ry rz
    limits (-60.0 90.0)
           (-90.0 90.0)
           (-90.0 90.0)
  end
  begin
     id 19
     name lradius
     direction 1 -4.48957e-011 1.07006e-026   
     length 3.94763   
     axis 180 -30 -90   XYZ
    dof rx
    limits (-10.0 170.0)
  end
  begin
     id 20
     name lwrist
     direction 1 -4.48978e-011 1.92422e-026   
     length 1.97382   
     axis -1.18182e-014 90 90   XYZ
    dof ry
    limits (-180.0 0.0)
 end
  begin
     id 21 
     name lhand
     direction 1 -4.48931e-011 3.84844e-026   
     length 0.560187   
     axis -2.45563e-014 90 90   XYZ
    dof rx rz
    limits (-90.0 90.0)
           (-45.0 45.0)
  end
  begin
     id 22 
     name lfingers
     direction 1 -4.48952e-011 7.69687e-026   
     length 0.451637   
     axis -4.91126e-014 90 90   XYZ
    dof rx
    limits (0.0 90.0)
  end
  begin
     id 23
     name lthumb
     direction 0.707107 -6.34901e-011 0.707107   
     length 0.648463   
     axis -90 45 2.85299e-015   XYZ
    dof rx rz
    limits (-45.0 45.0)
           (-45.0 45.0)
  end
  begin
     id 24 
     name rclavicle
     direction -0.965946 0.258716 0.00371831   
     length 3.63667  
     axis 0 0 0   XYZ 
    dof ry rz
    limits (-10.0 20.0)
           (-20.0 0.0)
  end
  begin
     id 25 
     name rhumerus
     direction -1 -4.48966e-011 -1.78361e-028  
     length 6.28647   
     axis 180 30 90   XYZ
    dof rx ry rz
    limits (-90.0 60.0)
           (-90.0 90.0)
           (-90.0 90.0)
  end
  begin
     id 26 
     name rradius
     direction -1 -4.48961e-011 1.05248e-026   
     length 3.81645   
     axis 180 30 90   XYZ
    dof rx
    limits (-10.0 170.0)
  end
  begin
     id 27 
     name rwrist
     direction -1 -4.48979e-011 1.92422e-026   
     length 1.90822   
     axis -1.18182e-014 -90 -90   XYZ
    dof ry
    limits (-180.0 0.0)
  end
  begin
     id 28
     name rhand
     direction -1 -4.48937e-011 3.84844e-026   
     length 0.646185   
     axis -2.45563e-014 -90 -90   XYZ
    dof rx rz
    limits (-90.0 90.0)
           (-45.0 45.0)
  end
  begin
     id 29
     name rfingers
     direction -1 -4.48953e-011 7.69687e-026   
     length 0.520971   
     axis -4.91126e-014 -90 -90   XYZ
    dof rx
    limits (0.0 90.0)
  end
  begin
     id 30
     name rthumb
     direction -0.707107 -6.3494e-011 0.707107   
     length 0.748013   
     axis -90 -45 -2.85299e-015   XYZ
    dof rx rz
    limits (-45.0 45.0)
           (-45.0 45.0)
  end
:hierarchy
  begin
    root lhipjoint rhipjoint lowerback
    lhipjoint lfemur
    lfemur ltibia
    ltibia lfoot
    lfoot ltoes
    rhipjoint rfemur
    rfemur rtibia
    rtibia rfoot
    rfoot rtoes
    lowerback upperback
    upperback thorax
    thorax lowerneck lclavicle rclavicle
    lowerneck upperneck
    upperneck head
    lclavicle lhumerus
    lhumerus lradius
    lradius lwrist
    lwrist lhand lthumb
    lhand lfingers
    rclavicle rhumerus
    rhumerus rradius
    rradius rwrist
    rwrist rhand rthumb
    rhand rfingers
  end

#!OML:ASF H:\HAZMAT1\Patient Classification 1\Patient 3\Session 1\dancer.ASF
:FULLY-SPECIFIED
:DEGREES
135
upperback 0.611210 -9.319530 -4.034450
rfoot -30.086901 -10.253500
lradius 55.173500
lthumb 35.365002 38.813599
rradius 38.548100
lwrist 35.195400
rhand -49.068901 -51.922798
rhumerus -37.580502 -40.939602 22.795401
lowerneck -2.535240 11.724700 9.560890
lhand 10.251700 12.343600
ltibia 37.827301
head 7.088690 8.775070 -1.331300
rwrist -19.615801
lfingers 7.125020
rtoes 7.730380
lowerback 0.057449 -6.988590 6.822840
rfingers 7.125020
lclavicle -0.000000 -0.000000
upperneck 18.135300 16.858000 -3.571890
rfemur -22.412600 18.499300 25.881599
thorax -1.159820 -4.702770 -7.764570
rclavicle -0.000000 -0.000000
rtibia 57.131302
lfoot -20.212299 35.082600
lhumerus 26.751301 -1.466990 14.011400
rthumb -21.695200 -80.727097
root -27.983700 18.306999 -16.984800 -179.658997 20.557100 898.901978
ltoes 44.525902
lfemur -52.139801 -36.954201 22.977800
136
upperback -0.902139 -11.115800 -2.572900
rfoot -38.401901 -9.135260
lradius 60.467800
lthumb 34.544300 38.242199
rradius 27.109900
lwrist 39.017101
rhand -45.924198 -54.414799
rhumerus -50.421600 -33.503101 16.178499
lowerneck -0.651815 15.333200 12.338800
lhand 9.386620 11.580900
ltibia 41.251801
head 5.406570 10.711000 -2.509980
rwrist -13.497800
lfingers 7.125020
rtoes 6.670850
lowerback -0.563676 -8.336990 3.470360
rfingers 7.125020
lclavicle 0.000000 0.000000
upperneck 10.906700 21.260000 -6.587640
rfemur -30.944201 25.885799 20.101101
thorax -1.786700 -5.609390 -4.331040
rclavicle 0.000000 0.000000
rtibia 63.955502
lfoot -9.288500 21.202900
lhumerus 20.846399 -8.260100 17.618000
rthumb -18.672701 -83.538597
root -28.247000 17.764099 -18.546200 -171.574997 31.348900 898.395020
ltoes 5.452240
lfemur -45.346901 -15.131500 6.532970
137
upperback 0.113287 -7.634790 -2.617160
rfoot -39.517200 -10.455200
lradius 66.589798
lthumb 33.480202 38.798599
rradius 30.045200
lwrist 40.341099
rhand -40.451099 -42.143902
rhumerus -28.471701 -33.027302 -5.525230
lowerneck -0.239668 13.491200 10.046400
lhand 8.266290 11.901000
ltibia 42.930099
head 3.642050 9.270630 -3.775610
rwrist -0.128526
lfingers 7.125020
rtoes 3.597960
lowerback 2.235620 -5.798940 4.595570
rfingers 7.125020
lclavicle 0.000000 0.000000
upperneck 5.681100 18.686399 -10.313300
rfemur -38.419899 22.506800 16.253500
thorax -2.088290 -3.866620 -4.893170
rclavicle 0.000000 0.000000
rtibia 68.405800
lfoot -7.826970 22.988800
lhumerus 19.689699 -16.175301 20.718700
rthumb -13.402600 -71.692802
root -28.585699 17.580099 -18.464001 -168.537003 29.798800 896.710999
ltoes 6.814460
lfemur -53.828300 -18.211000 9.331820
138
upperback -0.272674 -3.877890 -3.444710
rfoot -35.580502 -19.219000
lradius 73.993103
lthumb 39.468800 35.513500
rradius 28.861900
lwrist 39.860100
rhand -39.781399 -30.660999
rhumerus -22.050400 -26.084400 -17.394899
lowerneck -0.730501 13.089300 10.685900
lhand 14.593400 10.129400
ltibia 35.738998
head 2.698970 8.797290 -3.267710
rwrist 14.340700
lfingers 7.125020
rtoes 8.594880
lowerback 2.480540 -2.984130 7.365840
rfingers 7.125020
lclavicle 0.000000 0.000000
upperneck 3.248330 17.640100 -7.723760
rfemur -41.837700 5.583540 21.808001
thorax -2.409150 -2.086490 -7.555340
rclavicle 0.000000 0.000000
rtibia 62.966702
lfoot -38.104301 40.766899
lhumerus 33.354401 -25.168100 17.921801
rthumb -12.757100 -60.251301
root -27.898300 18.077600 -16.956600 -164.335999 -0.954789 895.942017
ltoes 34.635300
lfemur -56.676498 -36.353100 26.922800
139
upperback -1.586660 -11.127600 -1.201630
rfoot -30.084400 -19.629601
lradius 83.953598
lthumb 43.015598 33.661400
rradius 25.882900
lwrist 42.342602
rhand -34.853401 -30.224100
rhumerus -51.741600 -21.074200 1.664840
lowerneck 0.334961 14.213000 9.894360
lhand 18.372000 9.421000
ltibia 32.039299
head 2.010070 9.547410 -3.162440
rwrist 3.550130
lfingers 7.125020
rtoes -7.526150
lowerback -2.172420 -8.239000 5.544630
rfingers 7.125020
lclavicle 0.000000 -0.000000
upperneck 1.161410 19.070900 -6.421440
rfemur -40.676899 21.105499 14.106400
thorax -1.723580 -5.674480 -4.221660
rclavicle 0.000000 -0.000000
rtibia 59.893902
lfoot -9.898160 41.807400
lhumerus 35.516701 -25.251400 14.325700
rthumb -8.003240 -60.052601
root -26.860701 18.584499 -16.330999 -161.128998 -42.472401 894.734985
ltoes 29.684401
lfemur -23.408001 -24.006399 12.545400
140
upperback -2.309130 -14.728200 2.003230
rfoot -35.022099 -12.560300
lradius 86.249496
lthumb 42.988201 32.147301
rradius 23.584900
lwrist 45.118999
rhand -35.070202 -45.992802
rhumerus -64.672302 -26.768200 21.779800
lowerneck -1.711110 12.083000 10.958200
lhand 18.342699 7.897150
ltibia 29.593300
head 1.867700 7.961660 -3.604150
rwrist -13.112800
lfingers 7.125020
rtoes -12.250400
lowerback -3.694430 -10.886800 6.049460
rfingers 7.125020
lclavicle 0.000000 0.000000
upperneck 0.225147 16.032900 -8.204230
rfemur -42.717201 25.612900 4.012500
thorax -1.335510 -7.450530 -1.414260
rclavicle 0.000000 0.000000
rtibia 62.349998
lfoot -26.132200 26.451000
lhumerus 33.268799 -19.691200 12.383800
rthumb -8.212530 -75.813202
root -26.466600 18.201599 -15.169700 -153.147003 -69.876900 888.882996
ltoes -3.454960
lfemur -15.589900 -15.148200 3.505760
141
upperback -2.144000 -10.539900 2.215190
rfoot -39.767601 -14.229100
lradius 51.137600
lthumb 27.405500 39.485500
rradius 22.195801
lwrist 31.555300
rhand -35.418499 -41.778400
rhumerus -36.422699 -44.404099 5.402150
lowerneck -4.469760 8.552280 8.865360
lhand 1.896430 11.458600
ltibia 36.283001
head 1.515040 5.402770 -3.918680
rwrist -6.805170
lfingers 7.125020
rtoes -5.133080
lowerback 0.001184 -7.977250 7.242680
rfingers 7.125020
lclavicle 0.000000 -0.000000
upperneck -0.835172 11.083100 -9.634830
rfemur -44.036098 20.083799 4.247110
thorax -3.100390 -5.400880 -1.309550
rclavicle 0.000000 -0.000000
rtibia 65.769600
lfoot -22.376699 19.381300
lhumerus 14.172100 -13.771100 17.621401
rthumb -8.548700 -71.585403
root -25.794800 17.692301 -14.448800 -138.940994 -83.281998 876.056030
ltoes -3.416570
lfemur -30.152100 -10.555200 7.684040
142
upperback -1.048760 1.194990 -1.434590
rfoot -39.346298 -16.100401
lradius 28.161800
lthumb 25.120800 38.338299
rradius 37.833801
lwrist 3.688210
rhand -19.313299 -17.532200
rhumerus 9.539530 3.866310 -20.838600
lowerneck -5.634600 9.310340 9.849500
lhand -0.490118 9.970980
ltibia 28.877701
head 3.302180 5.942010 -4.561660
rwrist -16.147900
lfingers 7.125020
rtoes -1.219940
lowerback 1.627620 0.729468 10.041700
rfingers 7.125020
lclavicle 0.000000 -0.000000
upperneck 3.366500 12.392000 -12.097500
rfemur -47.712101 6.355320 16.742901
thorax -1.780300 0.459043 -7.192310
rclavicle 0.000000 -0.000000
rtibia 68.103203
lfoot -40.953300 31.139999
lhumerus -15.673400 10.274400 11.712500
rthumb 7.002700 -47.396400
root -24.960800 17.640499 -16.391600 9.293450 -79.348396 730.018982
ltoes 23.606701
lfemur -45.435600 -36.857300 32.997501
143
upperback -2.038110 4.005380 -2.362250
rfoot -38.774899 -25.892799
lradius 29.284401
lthumb 29.649099 37.206501
rradius 69.516899
lwrist 6.660550
rhand -7.247390 -11.893400
rhumerus 19.590401 23.458900 -16.567900
lowerneck -7.271040 1.583250 3.841690
lhand 4.244450 9.556280
ltibia 45.449902
head 2.864210 0.927167 -1.247660
rwrist -36.375999
lfingers 7.125020
rtoes 7.234650
lowerback 1.614400 2.881150 7.036530
rfingers 7.125020
lclavicle 0.000000 0.000000
upperneck 4.754680 1.863180 -2.041580
rfemur -45.468700 -5.913120 30.570900
thorax -2.372330 1.846350 -6.535550
rclavicle 0.000000 0.000000
rtibia 59.769199
lfoot -15.781700 25.785900
lhumerus -17.663300 12.412600 7.388850
rthumb 18.632900 -41.021000
root -25.216700 18.245800 -19.403000 16.604401 -34.328201 722.747009
ltoes 11.449400
lfemur -36.714699 -22.678600 9.784550
144
upperback -3.999500 -0.739215 -1.114990
rfoot -32.458000 -28.057100
lradius 28.328300
lthumb 30.584000 37.073700
rradius 84.791496
lwrist 8.267920
rhand -0.277351 -12.443400
rhumerus 18.204100 25.479401 -13.951600
lowerneck -2.925550 -6.647090 -4.170350
lhand 5.224430 9.593750
ltibia 37.393600
head 1.691080 -4.380380 1.507330
rwrist -50.134701
lfingers 7.125020
rtoes 2.619040
lowerback -0.145900 -0.633238 6.507630
rfingers 7.125020
lclavicle -0.000000 -0.000000
upperneck 2.674680 -8.804840 3.275730
rfemur -47.258499 7.607150 18.834299
thorax -4.174110 -0.619333 -4.786580
rclavicle -0.000000 -0.000000
rtibia 60.362400
lfoot -14.215700 -3.905430
lhumerus -15.597900 14.297500 5.057860
rthumb 25.324699 -40.782101
root -26.070200 18.412399 -21.560101 18.654699 14.562000 726.187988
ltoes -9.997780
lfemur -11.212300 -22.337900 -6.714580
145
upperback -5.265750 -3.318380 3.097660
rfoot -29.200300 -32.680199
lradius 25.396500
lthumb 29.731701 38.259102
rradius 88.598701
lwrist 7.954990
rhand 6.139320 -11.473600
rhumerus 18.135000 19.052000 -13.356800
lowerneck -1.248350 -10.751100 -6.689400
lhand 4.331010 10.623600
ltibia 17.156300
head 0.892902 -7.117030 2.160850
rwrist -60.279701
lfingers 7.125020
rtoes 7.109360
lowerback -1.070950 -2.723870 7.693170
rfingers 7.125020
lclavicle 0.000000 0.000000
upperneck -0.427080 -14.262200 4.167510
rfemur -58.462898 -1.214240 19.644501
thorax -5.153140 -1.887910 -0.945267
rclavicle 0.000000 0.000000
rtibia 63.631802
lfoot -23.685101 11.670700
lhumerus -25.187201 22.685699 -2.630720
rthumb 31.456100 -38.787102
root -26.417601 18.067400 -23.625000 22.687901 41.025902 723.364014
ltoes -16.245399
lfemur 7.605470 -23.841101 -17.665501
